<svg xmlns="http://www.w3.org/2000/svg" width="29.16" height="32.734" viewBox="0 0 29.16 32.734">
  <path id="icons8_google_alerts" d="M29.491,2a3.7,3.7,0,0,0-3.2,1.89,12.712,12.712,0,0,1,3.358,1.29,10.868,10.868,0,0,1,3.047,2.357A3.7,3.7,0,0,0,29.491,2ZM24.065,5.069c-4.345.106-7.1,4.017-8.917,6.6a12.2,12.2,0,0,1-1.89,2.357,7.38,7.38,0,0,1-3.158.734c-1.71.186-3.736.423-4.937,1.646a6.978,6.978,0,0,1,1.623-.178c3.144,0,7.044.328,13.721,4.159,5.6,3.188,10.177,7.714,11.275,11.119.417-1.362.053-3.049-1.623-5.826-.756-1.254.167-3.519,1.134-5.915,1.779-4.409,3.981-9.893-2.335-13.343A9.722,9.722,0,0,0,24.065,5.069ZM6.786,17.655c-1.32,0-2.254.336-2.6.934l-.067-.044c-.826,3.147,3.844,7.889,9.34,11.275a5.622,5.622,0,0,0,5.493,4.2,5.761,5.761,0,0,0,2.246-.445,19.261,19.261,0,0,0,5.871,1.156,4.863,4.863,0,0,0,3.269-.978,1.2,1.2,0,0,0,.133-.2,1.948,1.948,0,0,0,.022-1.4c-.7-2.549-4.664-7.119-10.674-10.541C13.444,17.956,9.883,17.655,6.786,17.655Zm12.164,6.4a4.27,4.27,0,1,1-4.27,4.27A4.225,4.225,0,0,1,18.95,24.06Z" transform="translate(-4.023 -2)"/>
</svg>
